<svg width="75" height="47" viewBox="0 0 75 47" fill="none" xmlns="http://www.w3.org/2000/svg">
<rect width="75" height="47" rx="7" fill="#FCBB15"/>
<rect y="13.8711" width="75" height="19.1232" fill="#0F0F0F"/>
<path d="M25.588 24.116C25.612 24.164 25.644 24.348 25.684 24.668C25.732 24.988 25.756 25.26 25.756 25.484C25.756 25.7 25.744 25.872 25.72 26H20.02L19.984 25.58C20.36 25.444 20.7 25.352 21.004 25.304C20.956 22.152 20.916 19.828 20.884 18.332C20.676 18.3 20.324 18.204 19.828 18.044L19.888 17.6H22.78C22.916 17.824 22.984 18.06 22.984 18.308C22.552 18.324 22.24 18.336 22.048 18.344C22.032 19.88 22.016 21.28 22 22.544C21.992 23.8 21.984 24.684 21.976 25.196H24.604L24.892 24.056C25.292 24.056 25.524 24.076 25.588 24.116ZM31.3576 22.076L31.2976 25.172C31.6416 25.196 31.9856 25.252 32.3296 25.34L32.3056 25.76C32.1776 25.824 31.9456 25.896 31.6096 25.976C31.2816 26.048 30.9576 26.084 30.6376 26.084C30.4936 25.796 30.4136 25.52 30.3976 25.256C29.4856 25.856 28.8456 26.156 28.4776 26.156C27.9096 26.156 27.4536 26.004 27.1096 25.7C26.7656 25.396 26.5936 24.972 26.5936 24.428C26.5936 23.172 27.3616 22.524 28.8976 22.484C29.7936 22.46 30.2456 22.448 30.2536 22.448L30.2416 22.04C30.2256 21.488 30.1216 21.092 29.9296 20.852C29.7376 20.604 29.3936 20.48 28.8976 20.48C28.6896 20.48 28.4656 20.528 28.2256 20.624L27.9376 21.824C27.8976 21.832 27.8296 21.836 27.7336 21.836L27.2416 21.8C27.1136 21.456 27.0456 20.98 27.0376 20.372C27.1896 20.292 27.5376 20.172 28.0816 20.012C28.6256 19.844 28.9736 19.76 29.1256 19.76C29.9416 19.76 30.5176 19.94 30.8536 20.3C31.1896 20.66 31.3576 21.252 31.3576 22.076ZM28.7416 25.34C28.9736 25.34 29.5096 25.08 30.3496 24.56L30.2896 23.06C29.7456 23.108 29.2896 23.152 28.9216 23.192C28.5536 23.232 28.2576 23.34 28.0336 23.516C27.8096 23.684 27.6976 23.952 27.6976 24.32C27.6976 25 28.0456 25.34 28.7416 25.34ZM36.1703 25.268L37.2383 25.244C38.3423 25.244 38.8943 25.7 38.8943 26.612C38.8943 27.036 38.7103 27.428 38.3423 27.788C37.9823 28.156 37.5503 28.432 37.0463 28.616C36.5423 28.8 36.0703 28.892 35.6303 28.892C35.1983 28.892 34.7943 28.828 34.4183 28.7C34.0423 28.58 33.7223 28.38 33.4583 28.1C33.1943 27.82 33.0623 27.496 33.0623 27.128C33.0623 27.04 33.2023 26.808 33.4823 26.432C33.7703 26.064 33.9583 25.848 34.0463 25.784C33.9743 25.736 33.8343 25.6 33.6263 25.376C33.4183 25.144 33.3023 24.984 33.2783 24.896C33.4783 24.528 33.7943 24.168 34.2263 23.816C33.5863 23.432 33.2663 22.8 33.2663 21.92C33.2663 21.216 33.4903 20.68 33.9383 20.312C34.3863 19.944 34.9463 19.76 35.6183 19.76C36.2903 19.76 36.8103 19.868 37.1783 20.084C37.8183 19.956 38.4463 19.892 39.0623 19.892C39.2143 19.892 39.2903 19.984 39.2903 20.168C39.2903 20.488 39.2303 20.708 39.1103 20.828L37.7303 20.6C38.0183 20.968 38.1623 21.408 38.1623 21.92C38.1623 22.72 37.9263 23.296 37.4543 23.648C36.9823 23.992 36.4023 24.164 35.7143 24.164C35.4983 24.164 35.2423 24.136 34.9463 24.08C34.8263 24.328 34.6743 24.596 34.4903 24.884C34.6343 25.14 35.1943 25.268 36.1703 25.268ZM37.6943 27.476C37.7743 27.252 37.8143 27.02 37.8143 26.78C37.8143 26.548 37.7223 26.36 37.5383 26.216C37.3543 26.072 37.1183 26 36.8303 26C35.6863 26 34.9863 25.988 34.7303 25.964C34.5143 26.308 34.3623 26.596 34.2743 26.828C34.1943 27.068 34.1543 27.204 34.1543 27.236C34.1543 27.548 34.3023 27.78 34.5983 27.932C34.8943 28.084 35.2343 28.16 35.6183 28.16C36.0103 28.16 36.4023 28.096 36.7943 27.968C37.1943 27.84 37.4943 27.676 37.6943 27.476ZM37.0823 21.968C37.0823 20.976 36.6263 20.48 35.7143 20.48C34.8023 20.48 34.3463 20.96 34.3463 21.92C34.3463 22.408 34.4663 22.784 34.7063 23.048C34.9463 23.312 35.2943 23.444 35.7503 23.444C36.6383 23.444 37.0823 22.952 37.0823 21.968ZM42.7118 25.424C43.3838 25.424 43.8358 25.216 44.0678 24.8C44.3078 24.376 44.4278 23.776 44.4278 23C44.4278 21.768 44.1558 20.996 43.6118 20.684C43.3878 20.556 43.0718 20.492 42.6638 20.492C42.2638 20.492 41.8838 20.576 41.5238 20.744C41.2038 21.36 41.0438 22.076 41.0438 22.892C41.0438 23.676 41.1478 24.28 41.3558 24.704C41.5958 25.184 42.0478 25.424 42.7118 25.424ZM39.9398 23C39.9398 21.984 40.1718 21.192 40.6358 20.624C41.0998 20.048 41.8158 19.76 42.7838 19.76C43.7518 19.76 44.4518 20.024 44.8838 20.552C45.3158 21.072 45.5318 21.844 45.5318 22.868C45.5318 23.892 45.2998 24.696 44.8358 25.28C44.3798 25.864 43.6838 26.156 42.7478 26.156C41.8118 26.156 41.1078 25.884 40.6358 25.34C40.1718 24.796 39.9398 24.016 39.9398 23ZM52.2168 21.104C52.2488 21.36 52.2648 21.656 52.2648 21.992C52.2648 22.328 52.2328 23.392 52.1688 25.184L53.1768 25.28C53.1768 25.504 53.1088 25.744 52.9728 26H50.2128L50.1768 25.58C50.5448 25.452 50.9048 25.356 51.2568 25.292C51.2088 23.164 51.1648 21.98 51.1248 21.74C51.0928 21.5 51.0368 21.3 50.9568 21.14C50.8768 20.972 50.7528 20.856 50.5848 20.792C50.4168 20.728 50.1608 20.696 49.8168 20.696C49.4808 20.696 49.0368 20.824 48.4848 21.08C48.4368 22.904 48.4048 24.272 48.3888 25.184L49.3968 25.28C49.3968 25.504 49.3288 25.744 49.1928 26H46.4328L46.3968 25.58C46.7648 25.452 47.1248 25.356 47.4768 25.292C47.4688 24.716 47.4488 23.904 47.4168 22.856C47.3848 21.8 47.3648 21.108 47.3568 20.78C46.9168 20.756 46.5648 20.708 46.3008 20.636L46.3488 20.012C46.7808 19.892 47.4088 19.832 48.2328 19.832C48.3448 20.032 48.4168 20.24 48.4488 20.456C48.8008 20.272 49.1488 20.112 49.4928 19.976C49.8368 19.832 50.0528 19.76 50.1408 19.76C51.0288 19.76 51.6488 20.032 52.0008 20.576C52.3688 20.376 52.7488 20.192 53.1408 20.024C53.5408 19.848 53.7808 19.76 53.8608 19.76C54.5888 19.76 55.1328 19.94 55.4928 20.3C55.8608 20.652 56.0448 21.232 56.0448 22.04C56.0448 22.28 56.0128 23.328 55.9488 25.184L56.9568 25.28C56.9568 25.504 56.8888 25.744 56.7528 26H53.9928L53.9568 25.58C54.3248 25.452 54.6848 25.356 55.0368 25.292C55.0048 24.028 54.9768 23.072 54.9528 22.424C54.9288 21.776 54.8368 21.328 54.6768 21.08C54.5168 20.824 54.1968 20.696 53.7168 20.696C53.2368 20.696 52.7368 20.832 52.2168 21.104Z" fill="white"/>
</svg>
